<svg id="Layer_1" data-name="Layer 1" xmlns="http://www.w3.org/2000/svg" viewBox="0 0 1008 1008"><defs><style>.cls-1{fill:#16a34a;}.cls-2{fill:#fff;}.cls-3{fill:#3730a3;}</style></defs><path class="cls-1" d="M583.78,621.17l16.65,16.65L568,670.25a90.5,90.5,0,0,1-128,0L337.75,568a90.5,90.5,0,0,1,0-128l32.43-32.43,26.75,26.75c9.52,9.53,22.67,14.09,36.14,13.67a56.25,56.25,0,0,1,17.56,2.64c19.9,5.91,44.37,21.38,66.79,43.81s37.9,46.89,43.81,66.79a59.58,59.58,0,0,1,2.65,15.28C564.32,593.36,571.86,609.25,583.78,621.17Z"/><path class="cls-2" d="M469.34,410.63c21.47-1.36,55.32,16.26,85.48,46.41,28.1,28.11,45.31,59.42,46.43,80.93.87,17,7.32,33.21,19.35,45.24l17.22,17.22L670.25,568a90.5,90.5,0,0,0,0-128L568,337.75a90.5,90.5,0,0,0-128,0l-32.43,32.43,26.59,26.58C443.46,406.06,456.22,411.47,469.34,410.63Z"/><path class="cls-3" d="M620.6,583.21c-12-12-18.48-28.25-19.35-45.24-1.12-21.51-18.33-52.82-46.43-80.93-30.16-30.15-64-47.77-85.48-46.41-13.12.84-25.88-4.57-35.18-13.87l-26.59-26.58-37.39,37.39,26.75,26.75c9.52,9.53,22.67,14.09,36.14,13.67a56.25,56.25,0,0,1,17.56,2.64c19.9,5.91,44.37,21.38,66.79,43.81s37.9,46.89,43.81,66.79a59.58,59.58,0,0,1,2.65,15.28c.44,16.85,8,32.74,19.9,44.66l16.65,16.65,37.39-37.39Z"/></svg>